<svg width="33" height="30" viewBox="0 0 33 30" fill="none" xmlns="http://www.w3.org/2000/svg">
<path d="M30 13.08V26.71L22.64 19.35L21.23 20.76L28.46 28H3.66L10.66 20.76L9.22 19.37L2 26.84V9.52L14.43 21.89C14.8047 22.2625 15.3116 22.4716 15.84 22.4716C16.3684 22.4716 16.8753 22.2625 17.25 21.89L26.08 13.11C25.3753 12.9261 24.7015 12.6397 24.08 12.26L15.82 20.47L3.31 8H20.81C20.6167 7.35043 20.5124 6.67762 20.5 6H2C1.46957 6 0.960859 6.21071 0.585786 6.58579C0.210714 6.96086 0 7.46957 0 8V28C0 28.5304 0.210714 29.0391 0.585786 29.4142C0.960859 29.7893 1.46957 30 2 30H30C30.5304 30 31.0391 29.7893 31.4142 29.4142C31.7893 29.0391 32 28.5304 32 28V12.2C31.3802 12.59 30.7063 12.8866 30 13.08Z" fill="#008625"/>
<path d="M28 10.86C30.7614 10.86 33 8.62142 33 5.86C33 3.09858 30.7614 0.860001 28 0.860001C25.2386 0.860001 23 3.09858 23 5.86C23 8.62142 25.2386 10.86 28 10.86Z" fill="#008625"/>
</svg>
